<svg width="49" height="48" viewBox="0 0 49 48" fill="none" xmlns="http://www.w3.org/2000/svg">
<rect width="48" height="48" transform="translate(0.333252)" fill="black"/>
<path d="M18.4276 23.2288C18.3655 22.8282 18.3332 22.4179 18.3332 22C18.3332 17.5817 21.9385 14 26.3858 14C30.8332 14 34.4385 17.5817 34.4385 22C34.4385 22.9981 34.2545 23.9535 33.9184 24.8345C33.8486 25.0175 33.8137 25.109 33.7979 25.1804C33.7821 25.2512 33.7761 25.301 33.7744 25.3735C33.7727 25.4466 33.7826 25.5272 33.8024 25.6883L34.205 28.9585C34.2486 29.3125 34.2704 29.4895 34.2115 29.6182C34.1599 29.731 34.0682 29.8205 33.9543 29.8695C33.8243 29.9254 33.6479 29.8995 33.295 29.8478L30.1097 29.3809C29.9434 29.3565 29.8602 29.3443 29.7845 29.3448C29.7096 29.3452 29.6577 29.3507 29.5844 29.3661C29.5103 29.3817 29.4156 29.4172 29.2262 29.4881C28.3429 29.819 27.3857 30 26.3858 30C25.9677 30 25.5569 29.9683 25.1559 29.9073M19.9648 34C22.9297 34 25.3333 31.5376 25.3333 28.5C25.3333 25.4624 22.9297 23 19.9648 23C16.9999 23 14.5964 25.4624 14.5964 28.5C14.5964 29.1106 14.6935 29.6979 14.8728 30.2467C14.9486 30.4787 14.9865 30.5947 14.9989 30.6739C15.0119 30.7567 15.0142 30.8031 15.0093 30.8867C15.0047 30.9668 14.9847 31.0573 14.9446 31.2383L14.3333 34L17.3281 33.591C17.4915 33.5687 17.5732 33.5575 17.6446 33.558C17.7198 33.5585 17.7597 33.5626 17.8334 33.5773C17.9034 33.5912 18.0074 33.6279 18.2155 33.7014C18.7638 33.8949 19.3524 34 19.9648 34Z" stroke="white" stroke-width="2" stroke-linecap="round" stroke-linejoin="round"/>
</svg>
