<svg width="40" height="40" viewBox="0 0 40 40" fill="none" xmlns="http://www.w3.org/2000/svg">
<path d="M7.75 4C7.75 2.20508 9.20508 0.75 11 0.75H27C27.1212 0.75 27.2375 0.798159 27.3232 0.883885L38.1161 11.6768C38.2018 11.7625 38.25 11.8788 38.25 12V36C38.25 37.7949 36.7949 39.25 35 39.25H11C9.20507 39.25 7.75 37.7949 7.75 36V4Z" stroke="#D0D5DD" stroke-width="1.5"/>
<path d="M27 0.5V8C27 10.2091 28.7909 12 31 12H38.5" stroke="#D0D5DD" stroke-width="1.5"/>
<path d="M3 20C3 18.8954 3.89543 18 5 18H27C28.1046 18 29 18.8954 29 20V32C29 33.1046 28.1046 34 27 34H5C3.89543 34 3 33.1046 3 32V20Z" fill="#D92D20"/>
<path d="M6.8323 30V22.7273H9.70162C10.2532 22.7273 10.7232 22.8326 11.1114 23.0433C11.4997 23.2517 11.7956 23.5417 11.9992 23.9134C12.2052 24.2827 12.3082 24.7088 12.3082 25.1918C12.3082 25.6747 12.204 26.1009 11.9957 26.4702C11.7873 26.8395 11.4855 27.1271 11.0901 27.3331C10.6971 27.5391 10.2213 27.642 9.66255 27.642H7.83372V26.4098H9.41397C9.7099 26.4098 9.95375 26.3589 10.1455 26.2571C10.3396 26.1529 10.484 26.0097 10.5787 25.8274C10.6758 25.6428 10.7243 25.4309 10.7243 25.1918C10.7243 24.9503 10.6758 24.7396 10.5787 24.5597C10.484 24.3774 10.3396 24.2365 10.1455 24.1371C9.95138 24.0353 9.70517 23.9844 9.40687 23.9844H8.36994V30H6.8323ZM15.885 30H13.3069V22.7273H15.9063C16.6379 22.7273 17.2676 22.8729 17.7955 23.1641C18.3235 23.4529 18.7295 23.8684 19.0136 24.4105C19.3 24.9527 19.4433 25.6013 19.4433 26.3565C19.4433 27.1141 19.3 27.7652 19.0136 28.3097C18.7295 28.8542 18.3211 29.272 17.7884 29.5632C17.2581 29.8544 16.6237 30 15.885 30ZM14.8445 28.6825H15.8211C16.2757 28.6825 16.658 28.602 16.9681 28.4411C17.2806 28.2777 17.515 28.0256 17.6713 27.6847C17.8299 27.3414 17.9092 26.8987 17.9092 26.3565C17.9092 25.8191 17.8299 25.38 17.6713 25.0391C17.515 24.6982 17.2818 24.4472 16.9717 24.2862C16.6615 24.1252 16.2792 24.0447 15.8247 24.0447H14.8445V28.6825ZM20.5823 30V22.7273H25.3976V23.995H22.1199V25.728H25.078V26.9957H22.1199V30H20.5823Z" fill="white"/>
</svg>
