<svg width="28" height="28" viewBox="0 0 28 28" fill="none" xmlns="http://www.w3.org/2000/svg">
<path d="M12.2498 15.75L24.4998 3.49996M12.3986 16.1327L15.4647 24.017C15.7349 24.7116 15.8699 25.0589 16.0645 25.1603C16.2332 25.2482 16.4342 25.2483 16.603 25.1606C16.7977 25.0594 16.9332 24.7123 17.2041 24.0181L24.8928 4.31569C25.1374 3.68898 25.2597 3.37562 25.1928 3.17539C25.1347 3.0015 24.9982 2.86504 24.8243 2.80695C24.6241 2.74005 24.3107 2.86234 23.684 3.10691L3.98167 10.7956C3.28741 11.0666 2.94029 11.202 2.83913 11.3968C2.75143 11.5656 2.75155 11.7665 2.83944 11.9352C2.94083 12.1298 3.28812 12.2649 3.98269 12.535L11.867 15.6011C12.008 15.6559 12.0785 15.6834 12.1379 15.7257C12.1905 15.7632 12.2365 15.8092 12.274 15.8619C12.3164 15.9212 12.3438 15.9917 12.3986 16.1327Z" stroke="#344054" stroke-width="2" stroke-linecap="round" stroke-linejoin="round"/>
</svg>
