<svg width="20" height="20" viewBox="0 0 20 20" fill="none" xmlns="http://www.w3.org/2000/svg">
<path d="M3.33398 18.3334H15.0007C15.4427 18.3334 15.8666 18.1578 16.1792 17.8453C16.4917 17.5327 16.6673 17.1088 16.6673 16.6667V5.83341L12.5007 1.66675H5.00065C4.55862 1.66675 4.1347 1.84234 3.82214 2.1549C3.50958 2.46746 3.33398 2.89139 3.33398 3.33341V6.66675" stroke="#98A2B3" stroke-width="1.66667" stroke-linecap="round" stroke-linejoin="round"/>
<path d="M11.666 1.66675V5.00008C11.666 5.44211 11.8416 5.86603 12.1542 6.17859C12.4667 6.49115 12.8907 6.66675 13.3327 6.66675H16.666" stroke="#98A2B3" stroke-width="1.66667" stroke-linecap="round" stroke-linejoin="round"/>
<path d="M4.99935 11.6667C4.99935 10.7462 4.25316 10 3.33268 10C2.41221 10 1.66602 10.7462 1.66602 11.6667V13.3333C1.66602 14.2538 2.41221 15 3.33268 15C4.25316 15 4.99935 14.2538 4.99935 13.3333V11.6667Z" stroke="#98A2B3" stroke-width="1.66667" stroke-linecap="round" stroke-linejoin="round"/>
<path d="M8.33398 10H10.0007V15" stroke="#98A2B3" stroke-width="1.66667" stroke-linecap="round" stroke-linejoin="round"/>
<path d="M8.33398 15H11.6673" stroke="#98A2B3" stroke-width="1.66667" stroke-linecap="round" stroke-linejoin="round"/>
</svg>
