<svg width="16" height="16" viewBox="0 0 16 16" fill="none" xmlns="http://www.w3.org/2000/svg">
<path d="M13.3327 6.66658C13.3327 10.6666 7.99935 14.6666 7.99935 14.6666C7.99935 14.6666 2.66602 10.6666 2.66602 6.66658C2.66602 5.2521 3.22792 3.89554 4.22811 2.89535C5.22831 1.89516 6.58486 1.33325 7.99935 1.33325C9.41384 1.33325 10.7704 1.89516 11.7706 2.89535C12.7708 3.89554 13.3327 5.2521 13.3327 6.66658Z" stroke="black" stroke-width="1.33333" stroke-linecap="round" stroke-linejoin="round"/>
<path d="M8 8.66663C9.10457 8.66663 10 7.7712 10 6.66663C10 5.56206 9.10457 4.66663 8 4.66663C6.89543 4.66663 6 5.56206 6 6.66663C6 7.7712 6.89543 8.66663 8 8.66663Z" stroke="black" stroke-width="1.33333" stroke-linecap="round" stroke-linejoin="round"/>
</svg>
